<svg width="26" height="24" viewBox="0 0 26 24" fill="none" xmlns="http://www.w3.org/2000/svg">
<path d="M7.94043 24C9.03678 24 9.92555 23.1096 9.92555 22.0113C9.92555 20.913 9.03678 20.0227 7.94043 20.0227C6.84409 20.0227 5.95532 20.913 5.95532 22.0113C5.95532 23.1096 6.84409 24 7.94043 24Z" fill="#53545C"/>
<path d="M21.8362 24C22.9326 24 23.8214 23.1096 23.8214 22.0113C23.8214 20.913 22.9326 20.0227 21.8362 20.0227C20.7399 20.0227 19.8511 20.913 19.8511 22.0113C19.8511 23.1096 20.7399 24 21.8362 24Z" fill="#53545C"/>
<path d="M25.4788 3.47922C25.344 3.31735 25.1742 3.18697 24.9816 3.09756C24.7891 3.00815 24.5787 2.96195 24.3656 2.96231H6.1112L5.74354 0.914668C5.70433 0.696556 5.58809 0.498979 5.41522 0.35664C5.24235 0.214302 5.02391 0.136306 4.79828 0.136353H0.959655C0.705139 0.136353 0.461047 0.235597 0.281076 0.412254C0.101106 0.588911 0 0.828508 0 1.07834C0 1.32817 0.101106 1.56777 0.281076 1.74442C0.461047 1.92108 0.705139 2.02032 0.959655 2.02032H3.99336L6.73198 17.2558C6.77118 17.4739 6.88743 17.6715 7.0603 17.8138C7.23317 17.9561 7.45161 18.0341 7.67724 18.0341H23.0317C23.2862 18.0341 23.5303 17.9348 23.7103 17.7582C23.8903 17.5815 23.9914 17.3419 23.9914 17.0921C23.9914 16.8423 23.8903 16.6027 23.7103 16.426C23.5303 16.2494 23.2862 16.1501 23.0317 16.1501H8.48215L8.14387 14.2661H22.6383C22.9711 14.2657 23.2935 14.1525 23.551 13.9455C23.8085 13.7386 23.9853 13.4506 24.0514 13.1305L25.7787 4.65259C25.8204 4.44741 25.815 4.23572 25.7632 4.03281C25.7113 3.82989 25.6142 3.64081 25.4788 3.47922Z" fill="#53545C"/>
</svg>
