<svg width="110" height="96" viewBox="0 0 110 96" fill="none" xmlns="http://www.w3.org/2000/svg">
<path d="M36.7341 95.5227C41.1522 95.5227 44.7339 91.9683 44.7339 87.5838C44.7339 83.1992 41.1522 79.6448 36.7341 79.6448C32.3159 79.6448 28.7343 83.1992 28.7343 87.5838C28.7343 91.9683 32.3159 95.5227 36.7341 95.5227Z" fill="#E7E7E7"/>
<path d="M92.7336 95.5227C97.1518 95.5227 100.733 91.9683 100.733 87.5838C100.733 83.1992 97.1518 79.6448 92.7336 79.6448C88.3154 79.6448 84.7338 83.1992 84.7338 87.5838C84.7338 91.9683 88.3154 95.5227 92.7336 95.5227Z" fill="#E7E7E7"/>
<path d="M34.6796 59.7972H100.013L109.613 12.1634H26.2073L24.0898 0.254883H0.735352V8.19386H17.38L29.3797 75.6752H100.733V67.7362H36.0895L34.6796 59.7972Z" fill="#E7E7E7"/>
</svg>
