<svg width="29" height="45" viewBox="0 0 29 45" fill="none" xmlns="http://www.w3.org/2000/svg">
<path d="M14.5 0C7.8832 0 2.5 5.3832 2.5 12C2.5 18.6168 7.8832 24 14.5 24C21.1168 24 26.5 18.6168 26.5 12C26.5 5.3832 21.1168 0 14.5 0ZM14.5 4.92C14.8085 4.92 15.1101 5.01149 15.3667 5.18291C15.6232 5.35432 15.8232 5.59796 15.9413 5.88301C16.0593 6.16807 16.0902 6.48173 16.03 6.78434C15.9698 7.08695 15.8213 7.36492 15.6031 7.58309C15.3849 7.80126 15.107 7.94983 14.8043 8.01002C14.5017 8.07022 14.1881 8.03932 13.903 7.92125C13.618 7.80318 13.3743 7.60323 13.2029 7.34669C13.0315 7.09015 12.94 6.78854 12.94 6.48C12.94 6.06626 13.1044 5.66947 13.3969 5.37691C13.6895 5.08436 14.0863 4.92 14.5 4.92ZM17.38 18.48H12.1C11.8454 18.48 11.6012 18.3789 11.4212 18.1988C11.2411 18.0188 11.14 17.7746 11.14 17.52C11.14 17.2654 11.2411 17.0212 11.4212 16.8412C11.6012 16.6611 11.8454 16.56 12.1 16.56H13.78V11.28H12.82C12.5654 11.28 12.3212 11.1789 12.1412 10.9988C11.9611 10.8188 11.86 10.5746 11.86 10.32C11.86 10.0654 11.9611 9.82121 12.1412 9.64118C12.3212 9.46114 12.5654 9.36 12.82 9.36H14.74C14.9946 9.36 15.2388 9.46114 15.4188 9.64118C15.5989 9.82121 15.7 10.0654 15.7 10.32V16.56H17.38C17.6346 16.56 17.8788 16.6611 18.0588 16.8412C18.2389 17.0212 18.34 17.2654 18.34 17.52C18.34 17.7746 18.2389 18.0188 18.0588 18.1988C17.8788 18.3789 17.6346 18.48 17.38 18.48Z" fill="white"/>
<path d="M5.90909 31.2727V40H5.11222V31.2727H5.90909ZM8.83026 35.9091V40H8.07173V33.4545H8.80895V34.4815H8.87713C9.03054 34.1463 9.26918 33.8778 9.59304 33.6761C9.91974 33.4716 10.3232 33.3693 10.8033 33.3693C11.2436 33.3693 11.63 33.4616 11.9624 33.6463C12.2976 33.8281 12.5575 34.0966 12.7422 34.4517C12.9297 34.8068 13.0234 35.2429 13.0234 35.7599V40H12.2649V35.8068C12.2649 35.2699 12.1143 34.8452 11.8132 34.5327C11.5149 34.2202 11.1143 34.0639 10.6115 34.0639C10.2678 34.0639 9.96236 34.1378 9.69531 34.2855C9.42827 34.4332 9.21662 34.6463 9.06037 34.9247C8.90696 35.2003 8.83026 35.5284 8.83026 35.9091ZM17.7141 33.4545V34.1151H14.4968V33.4545H17.7141ZM15.5025 40V32.4957C15.5025 32.1435 15.5835 31.8466 15.7454 31.6051C15.9102 31.3636 16.1246 31.1804 16.3888 31.0554C16.6531 30.9304 16.9329 30.8679 17.2283 30.8679C17.4272 30.8679 17.592 30.8849 17.7227 30.919C17.8562 30.9503 17.9613 30.9815 18.038 31.0128L17.8164 31.6776C17.7596 31.6605 17.69 31.6406 17.6076 31.6179C17.5252 31.5952 17.4215 31.5838 17.2965 31.5838C16.967 31.5838 16.7127 31.6761 16.5337 31.8608C16.3548 32.0455 16.2653 32.3097 16.2653 32.6534L16.261 40H15.5025ZM21.5025 40.1364C20.9371 40.1364 20.4371 39.9929 20.0025 39.706C19.5707 39.419 19.2326 39.0227 18.9883 38.517C18.744 38.0085 18.6218 37.4219 18.6218 36.7571C18.6218 36.0866 18.744 35.4972 18.9883 34.9886C19.2326 34.4773 19.5707 34.0795 20.0025 33.7955C20.4371 33.5085 20.9371 33.3651 21.5025 33.3651C22.0678 33.3651 22.5664 33.5085 22.9982 33.7955C23.43 34.0824 23.7681 34.4801 24.0124 34.9886C24.2596 35.4972 24.3832 36.0866 24.3832 36.7571C24.3832 37.4219 24.261 38.0085 24.0167 38.517C23.7724 39.0227 23.4329 39.419 22.9982 39.706C22.5664 39.9929 22.0678 40.1364 21.5025 40.1364ZM21.5025 39.4418C21.957 39.4418 22.342 39.3196 22.6573 39.0753C22.9727 38.831 23.2113 38.5057 23.3732 38.0994C23.538 37.6932 23.6204 37.2457 23.6204 36.7571C23.6204 36.2685 23.538 35.8196 23.3732 35.4105C23.2113 35.0014 22.9727 34.6733 22.6573 34.4261C22.342 34.179 21.957 34.0554 21.5025 34.0554C21.0508 34.0554 20.6658 34.179 20.3477 34.4261C20.0323 34.6733 19.7923 35.0014 19.6275 35.4105C19.4656 35.8196 19.3846 36.2685 19.3846 36.7571C19.3846 37.2457 19.4656 37.6932 19.6275 38.0994C19.7923 38.5057 20.0323 38.831 20.3477 39.0753C20.663 39.3196 21.0479 39.4418 21.5025 39.4418Z" fill="white"/>
</svg>
