<svg width="15" height="17" viewBox="0 0 15 17" fill="none" xmlns="http://www.w3.org/2000/svg">
<path d="M13.7127 2.375H10.1697V1.48438C10.1697 1.09069 10.0142 0.713138 9.73732 0.434763C9.46047 0.156389 9.08497 0 8.69344 0H5.74091C5.34938 0 4.97389 0.156389 4.69704 0.434763C4.42018 0.713138 4.26465 1.09069 4.26465 1.48438V2.375H0.72161C0.564998 2.375 0.4148 2.43756 0.304059 2.54891C0.193318 2.66026 0.131104 2.81128 0.131104 2.96875C0.131104 3.12622 0.193318 3.27724 0.304059 3.38859C0.4148 3.49994 0.564998 3.5625 0.72161 3.5625H1.34902L2.05025 14.8779C2.10266 15.8743 2.8622 16.625 3.82177 16.625H10.6126C11.577 16.625 12.3214 15.891 12.3841 14.8809L13.0853 3.5625H13.7127C13.8694 3.5625 14.0196 3.49994 14.1303 3.38859C14.241 3.27724 14.3033 3.12622 14.3033 2.96875C14.3033 2.81128 14.241 2.66026 14.1303 2.54891C14.0196 2.43756 13.8694 2.375 13.7127 2.375ZM4.87619 14.25H4.85515C4.70212 14.2501 4.55502 14.1905 4.44487 14.0836C4.33471 13.9768 4.2701 13.8312 4.26465 13.6774L3.96939 5.3649C3.96381 5.20743 4.02068 5.05418 4.12747 4.93886C4.23427 4.82355 4.38225 4.75561 4.53886 4.75C4.69548 4.74439 4.84789 4.80157 4.96258 4.90895C5.07726 5.01633 5.14483 5.16512 5.15041 5.3226L5.44566 13.6351C5.44847 13.7131 5.43597 13.7909 5.40886 13.864C5.38176 13.9371 5.34058 14.0041 5.28769 14.0612C5.2348 14.1184 5.17124 14.1644 5.10063 14.1968C5.03002 14.2292 4.95375 14.2473 4.87619 14.25ZM7.80768 13.6562C7.80768 13.8137 7.74547 13.9647 7.63473 14.0761C7.52399 14.1874 7.37379 14.25 7.21718 14.25C7.06057 14.25 6.91037 14.1874 6.79963 14.0761C6.68889 13.9647 6.62667 13.8137 6.62667 13.6562V5.34375C6.62667 5.18628 6.68889 5.03525 6.79963 4.92391C6.91037 4.81256 7.06057 4.75 7.21718 4.75C7.37379 4.75 7.52399 4.81256 7.63473 4.92391C7.74547 5.03525 7.80768 5.18628 7.80768 5.34375V13.6562ZM8.9887 2.375H5.44566V1.48438C5.44521 1.44526 5.45255 1.40646 5.46723 1.37024C5.48191 1.33402 5.50364 1.30111 5.53115 1.27346C5.55865 1.2458 5.59138 1.22395 5.6274 1.20919C5.66342 1.19443 5.70202 1.18705 5.74091 1.1875H8.69344C8.73234 1.18705 8.77093 1.19443 8.80696 1.20919C8.84298 1.22395 8.87571 1.2458 8.90321 1.27346C8.93072 1.30111 8.95245 1.33402 8.96713 1.37024C8.98181 1.40646 8.98914 1.44526 8.9887 1.48438V2.375ZM10.1697 13.6774C10.1643 13.8312 10.0996 13.9768 9.98949 14.0836C9.87933 14.1905 9.73224 14.2501 9.5792 14.25H9.5578C9.48027 14.2472 9.40404 14.2291 9.33347 14.1967C9.26291 14.1643 9.19938 14.1182 9.14653 14.0611C9.09368 14.004 9.05254 13.937 9.02546 13.8639C8.99838 13.7908 8.98588 13.7131 8.9887 13.6351L9.28395 5.3226C9.28671 5.24463 9.30472 5.16796 9.33695 5.09699C9.36918 5.02602 9.41499 4.96212 9.47178 4.90895C9.52857 4.85578 9.59521 4.81437 9.66792 4.7871C9.74062 4.75983 9.81795 4.74722 9.89549 4.75C9.97304 4.75278 10.0493 4.77089 10.1199 4.80329C10.1905 4.8357 10.254 4.88176 10.3069 4.93886C10.3598 4.99596 10.4009 5.06297 10.4281 5.13607C10.4552 5.20917 10.4677 5.28693 10.465 5.3649L10.1697 13.6774Z" fill="#53545C"/>
</svg>
